<svg width="357" height="136" viewBox="0 0 357 136" fill="none" xmlns="http://www.w3.org/2000/svg">
<path d="M355.139 62.0696C355.451 70.9997 350.984 79.7899 342.383 88.0601C333.783 96.3298 321.132 103.994 305.314 110.633C273.686 123.907 229.602 132.994 180.568 134.706C131.534 136.419 86.9233 130.429 54.4464 119.393C38.2044 113.874 25.0494 107.111 15.8934 99.4613C6.73697 91.8113 1.66695 83.3541 1.35511 74.424C1.04326 65.4939 5.51098 56.7036 14.1115 48.4335C22.7115 40.1638 35.3627 32.4993 51.1802 25.8608C82.8082 12.5868 126.892 3.49959 175.926 1.78728C224.961 0.0749688 269.571 6.06493 302.048 17.1003C318.29 22.6193 331.445 29.3826 340.601 37.0322C349.758 44.6823 354.828 53.1394 355.139 62.0696Z" stroke="#D9FF5A" stroke-width="2"/>
</svg>
